<?xml version="1.0" encoding="UTF-8"?>
<svg id="Camada_1" data-name="Camada 1" xmlns="http://www.w3.org/2000/svg" viewBox="0 0 250.72 293.13">
  <defs>
    <style>
      .cls-1 {
        fill: #002a42;
      }

      .cls-1, .cls-2, .cls-3, .cls-4, .cls-5, .cls-6 {
        stroke-width: 0px;
      }

      .cls-2 {
        fill: #57c6d4;
      }

      .cls-3 {
        fill: #015b78;
      }

      .cls-4 {
        fill: #014a60;
      }

      .cls-5 {
        fill: #00a5b2;
      }

      .cls-6 {
        fill: #071a23;
      }
    </style>
  </defs>
  <g id="Camada_2" data-name="Camada 2">
    <g id="Layer_1" data-name="Layer 1">
      <path class="cls-6" d="M38.49,128.84s29.51,1.16,49.44,19.59c19.53,21.74,76.56,79.57,107.48-60.53,9,32.87,19.67,115.09-74.53,139.59-58.52-5.49-82.39-98.65-82.39-98.65Z"/>
      <path class="cls-1" d="M195.41,87.9c13.72,94.56-13.36,46.19-28.83,97.08-14.45,36.25-35,23.57-75,17.75-64.31-11.54-52.34-21-52.34-21,0,0-34.55,45.54,52.97,65.27,23.29,7.32,95.29-33.14,95.29-33.14,0,0,51.75-57.62,7.91-125.96Z"/>
      <path class="cls-5" d="M161.75,111.83C79,27.14,10,219.91,145.33,274.79c-48.75-8.79-141.54-47.21-102.41-155.5,23.08-63.96,106.44-62.57,118.83-7.46Z"/>
      <path class="cls-2" d="M157.51,118.35c6.58,0,13.38-2.85,12.38-17.46,4.2-2.34,4.65-7.65,4.23-16.83-.91-22.29-11.33-51.74-37.24-84.06-6.21,13.22-4.29,25.27,3.66,36.44C54.29,6-13,109.62,3.37,177c20.2,84.85,96,106.86,144.7,97.85C.86,234.4,20.44,97.8,98.09,73.53c41.91-13.1,72.97,37.47,59.42,44.82Z"/>
      <path class="cls-4" d="M70.74,233.59c21.29,8.6,41.26,9.14,62.53,3.19,107.67-33.06,86.29-138.13,74.73-173.22,6.18-3.43,21.16,55.29,21.16,55.29,12.91,59.54-87.87,193.32-158.42,114.74Z"/>
      <path class="cls-3" d="M186.3,264.66c-60.35,33.51-136.45,11.76-169.97-48.6-.01-.02-.02-.04-.03-.06-33.11-61.27-7.11-109.68,2.52-124.83C2.82,130.89-3.83,180.91,43.93,221.8c64,55.45,148.14,20.55,173.85-50,20.57-53.3-11.28-111.17-11.28-111.17,13,11.7,20.56,19.47,28.47,34,33.53,60.35,11.78,136.45-48.57,169.97-.03.02-.07.04-.1.06Z"/>
    </g>
  </g>
</svg>